<svg xmlns="http://www.w3.org/2000/svg" xmlns:xlink="http://www.w3.org/1999/xlink" contentStyleType="text/css" height="192px" preserveAspectRatio="none" style="width:457px;height:192px;background:#FFFFFF;" version="1.1" viewBox="0 0 457 192" width="457px" zoomAndPan="magnify"><defs/><g><!--class Calculator--><g id="elem_Calculator"><rect codeLine="1" fill="#F1F1F1" height="178.375" id="Calculator" rx="2.5" ry="2.5" style="stroke:#181818;stroke-width:0.5;" width="174.1484" x="7" y="7"/><ellipse cx="54.2773" cy="23" fill="#ADD1B2" rx="11" ry="11" style="stroke:#181818;stroke-width:1.0;"/><path d="M57.2461,28.6406 Q56.668,28.9375 56.0273,29.0781 Q55.3867,29.2344 54.6836,29.2344 Q52.1836,29.2344 50.8555,27.5938 Q49.543,25.9375 49.543,22.8125 Q49.543,19.6875 50.8555,18.0313 Q52.1836,16.375 54.6836,16.375 Q55.3867,16.375 56.0273,16.5313 Q56.6836,16.6875 57.2461,16.9844 L57.2461,19.7031 Q56.6211,19.125 56.0273,18.8594 Q55.4336,18.5781 54.8086,18.5781 Q53.4648,18.5781 52.7773,19.6563 Q52.0898,20.7188 52.0898,22.8125 Q52.0898,24.9063 52.7773,25.9844 Q53.4648,27.0469 54.8086,27.0469 Q55.4336,27.0469 56.0273,26.7813 Q56.6211,26.5 57.2461,25.9219 L57.2461,28.6406 Z " fill="#000000"/><text fill="#000000" font-family="sans-serif" font-size="14" lengthAdjust="spacing" textLength="71.0938" x="74.7773" y="27.8467">Calculator</text><line style="stroke:#181818;stroke-width:0.5;" x1="8" x2="180.1484" y1="39" y2="39"/><rect fill="none" height="6" style="stroke:#C82930;stroke-width:1.0;" width="6" x="15" y="49.6484"/><text fill="#000000" font-family="sans-serif" font-size="14" lengthAdjust="spacing" textLength="127.2783" x="27" y="55.9951">display: JTextField</text><rect fill="none" height="6" style="stroke:#C82930;stroke-width:1.0;" width="6" x="15" y="65.9453"/><text fill="#000000" font-family="sans-serif" font-size="14" lengthAdjust="spacing" textLength="124.585" x="27" y="72.292">buttons: JButton[]</text><rect fill="none" height="6" style="stroke:#C82930;stroke-width:1.0;" width="6" x="15" y="82.2422"/><text fill="#000000" font-family="sans-serif" font-size="14" lengthAdjust="spacing" textLength="111.3027" x="27" y="88.5889">icon: ImageIcon</text><line style="stroke:#181818;stroke-width:0.5;" x1="8" x2="180.1484" y1="95.8906" y2="95.8906"/><ellipse cx="18" cy="109.5391" fill="#84BE84" rx="3" ry="3" style="stroke:#038048;stroke-width:1.0;"/><text fill="#000000" font-family="sans-serif" font-size="14" lengthAdjust="spacing" textLength="82.0176" x="27" y="112.8857">Calculator()</text><rect fill="#F24D5C" height="6" style="stroke:#C82930;stroke-width:1.0;" width="6" x="15" y="122.8359"/><text fill="#000000" font-family="sans-serif" font-size="14" lengthAdjust="spacing" textLength="146.6172" x="27" y="129.1826">createStyledButton()</text><rect fill="#F24D5C" height="6" style="stroke:#C82930;stroke-width:1.0;" width="6" x="15" y="139.1328"/><text fill="#000000" font-family="sans-serif" font-size="14" lengthAdjust="spacing" textLength="148.1484" x="27" y="145.4795">evaluateExpression()</text><rect fill="#F24D5C" height="6" style="stroke:#C82930;stroke-width:1.0;" width="6" x="15" y="155.4297"/><text fill="#000000" font-family="sans-serif" font-size="14" lengthAdjust="spacing" textLength="104.8018" x="27" y="161.7764">infixToPostfix()</text><rect fill="#F24D5C" height="6" style="stroke:#C82930;stroke-width:1.0;" width="6" x="15" y="171.7266"/><text fill="#000000" font-family="sans-serif" font-size="14" lengthAdjust="spacing" textLength="118.7402" x="27" y="178.0732">evaluatePostfix()</text></g><!--class LoanCalculator--><g id="elem_LoanCalculator"><rect codeLine="12" fill="#F1F1F1" height="178.375" id="LoanCalculator" rx="2.5" ry="2.5" style="stroke:#181818;stroke-width:0.5;" width="234.3662" x="215.89" y="7"/><ellipse cx="276.3675" cy="23" fill="#ADD1B2" rx="11" ry="11" style="stroke:#181818;stroke-width:1.0;"/><path d="M279.3363,28.6406 Q278.7582,28.9375 278.1175,29.0781 Q277.4769,29.2344 276.7738,29.2344 Q274.2738,29.2344 272.9457,27.5938 Q271.6332,25.9375 271.6332,22.8125 Q271.6332,19.6875 272.9457,18.0313 Q274.2738,16.375 276.7738,16.375 Q277.4769,16.375 278.1175,16.5313 Q278.7738,16.6875 279.3363,16.9844 L279.3363,19.7031 Q278.7113,19.125 278.1175,18.8594 Q277.5238,18.5781 276.8988,18.5781 Q275.555,18.5781 274.8675,19.6563 Q274.18,20.7188 274.18,22.8125 Q274.18,24.9063 274.8675,25.9844 Q275.555,27.0469 276.8988,27.0469 Q277.5238,27.0469 278.1175,26.7813 Q278.7113,26.5 279.3363,25.9219 L279.3363,28.6406 Z " fill="#000000"/><text fill="#000000" font-family="sans-serif" font-size="14" lengthAdjust="spacing" textLength="104.9111" x="296.8675" y="27.8467">LoanCalculator</text><line style="stroke:#181818;stroke-width:0.5;" x1="216.89" x2="449.2562" y1="39" y2="39"/><rect fill="none" height="6" style="stroke:#C82930;stroke-width:1.0;" width="6" x="223.89" y="49.6484"/><text fill="#000000" font-family="sans-serif" font-size="14" lengthAdjust="spacing" textLength="195.8223" x="235.89" y="55.9951">loanAmountField: JTextField</text><rect fill="none" height="6" style="stroke:#C82930;stroke-width:1.0;" width="6" x="223.89" y="65.9453"/><text fill="#000000" font-family="sans-serif" font-size="14" lengthAdjust="spacing" textLength="190.9756" x="235.89" y="72.292">annualRateField: JTextField</text><rect fill="none" height="6" style="stroke:#C82930;stroke-width:1.0;" width="6" x="223.89" y="82.2422"/><text fill="#000000" font-family="sans-serif" font-size="14" lengthAdjust="spacing" textLength="179.6006" x="235.89" y="88.5889">loanYearsField: JTextField</text><rect fill="none" height="6" style="stroke:#C82930;stroke-width:1.0;" width="6" x="223.89" y="98.5391"/><text fill="#000000" font-family="sans-serif" font-size="14" lengthAdjust="spacing" textLength="208.3662" x="235.89" y="104.8857">monthlyPaymentLabel: JLabel</text><rect fill="none" height="6" style="stroke:#C82930;stroke-width:1.0;" width="6" x="223.89" y="114.8359"/><text fill="#000000" font-family="sans-serif" font-size="14" lengthAdjust="spacing" textLength="175.1025" x="235.89" y="121.1826">totalInterestLabel: JLabel</text><rect fill="none" height="6" style="stroke:#C82930;stroke-width:1.0;" width="6" x="223.89" y="131.1328"/><text fill="#000000" font-family="sans-serif" font-size="14" lengthAdjust="spacing" textLength="182.7656" x="235.89" y="137.4795">totalPaymentLabel: JLabel</text><line style="stroke:#181818;stroke-width:0.5;" x1="216.89" x2="449.2562" y1="144.7813" y2="144.7813"/><ellipse cx="226.89" cy="158.4297" fill="#84BE84" rx="3" ry="3" style="stroke:#038048;stroke-width:1.0;"/><text fill="#000000" font-family="sans-serif" font-size="14" lengthAdjust="spacing" textLength="115.835" x="235.89" y="161.7764">LoanCalculator()</text><rect fill="#F24D5C" height="6" style="stroke:#C82930;stroke-width:1.0;" width="6" x="223.89" y="171.7266"/><text fill="#000000" font-family="sans-serif" font-size="14" lengthAdjust="spacing" textLength="108.0488" x="235.89" y="178.0732">calculateLoan()</text></g><!--SRC=[TP1DQm9138Rl-olcQ17_WBUsAAnu4Ekb50znDkf0Df6TJDcbzB-R7JzQ_3ZDo_CaWNSyGOpk7SWd0fN6_HJEZLmLue6W6xlP2bkT1gGgyqrI5Ox6ttBwMcSSlF3ObJNiiBHeRFZlvk0b3_a6GV53EyBgj7qM-0sKJ4tQGuCnXgi8l0tjIXOIrSBDz1_zBGgVQym5-AuA6Noj9V6fnbqbO4v0IxlusFVxdmXDVAnhOTrJju2kHjOvR91i9h_PgoXGoOfMxPb-iZoyANJvnpF0tlRrZm00]--></g></svg>