<svg xmlns="http://www.w3.org/2000/svg" xmlns:xlink="http://www.w3.org/1999/xlink" contentStyleType="text/css" height="1270px" preserveAspectRatio="none" style="width:812px;height:1270px;background:#FFFFFF;" version="1.1" viewBox="0 0 812 1270" width="812px" zoomAndPan="magnify"><defs/><g><ellipse cx="504.1533" cy="20" fill="#222222" rx="10" ry="10" style="stroke:#222222;stroke-width:1.0;"/><rect fill="#F1F1F1" height="33.9688" rx="12.5" ry="12.5" style="stroke:#181818;stroke-width:0.5;" width="92.0005" x="458.153" y="50"/><text fill="#000000" font-family="sans-serif" font-size="12" lengthAdjust="spacing" textLength="72.0005" x="468.153" y="71.1387">&#29992;&#25143;&#21551;&#21160;&#24212;&#29992;</text><rect fill="#F1F1F1" height="33.9688" rx="12.5" ry="12.5" style="stroke:#181818;stroke-width:0.5;" width="128.0008" x="440.1529" y="103.9688"/><text fill="#000000" font-family="sans-serif" font-size="12" lengthAdjust="spacing" textLength="108.0008" x="450.1529" y="125.1074">&#25171;&#24320;&#26631;&#20934;&#35745;&#31639;&#22120;&#30028;&#38754;</text><polygon fill="#F1F1F1" points="482.1534,201.9375,526.1531,201.9375,538.1531,213.9375,526.1531,225.9375,482.1534,225.9375,470.1534,213.9375,482.1534,201.9375" style="stroke:#181818;stroke-width:0.5;"/><text fill="#000000" font-family="sans-serif" font-size="11" lengthAdjust="spacing" textLength="43.9997" x="482.1534" y="217.7456">&#36873;&#25321;&#25805;&#20316;</text><text fill="#000000" font-family="sans-serif" font-size="11" lengthAdjust="spacing" textLength="43.9997" x="426.1537" y="211.3433">&#26631;&#20934;&#35745;&#31639;</text><text fill="#000000" font-family="sans-serif" font-size="11" lengthAdjust="spacing" textLength="54.9996" x="538.1531" y="211.3433">&#36151;&#27454;&#35745;&#31639;&#22120;</text><rect fill="#F1F1F1" height="33.9688" rx="12.5" ry="12.5" style="stroke:#181818;stroke-width:0.5;" width="164.0011" x="247.7682" y="292.9375"/><text fill="#000000" font-family="sans-serif" font-size="12" lengthAdjust="spacing" textLength="144.0011" x="257.7682" y="314.0762">&#29992;&#25143;&#36755;&#20837;&#34920;&#36798;&#24335;&#25110;&#36873;&#25321;&#25805;&#20316;</text><polygon fill="#F1F1F1" points="304.8498,349.9375,354.6878,349.9375,366.6878,361.9375,354.6878,373.9375,304.8498,373.9375,292.8498,361.9375,304.8498,349.9375" style="stroke:#181818;stroke-width:0.5;"/><text fill="#000000" font-family="sans-serif" font-size="11" lengthAdjust="spacing" textLength="49.8381" x="304.8498" y="365.7456">&#36755;&#20837;&#23436;&#25104;?</text><text fill="#000000" font-family="sans-serif" font-size="11" lengthAdjust="spacing" textLength="10.9999" x="281.8498" y="359.3433">&#26159;</text><text fill="#000000" font-family="sans-serif" font-size="11" lengthAdjust="spacing" textLength="10.9999" x="366.6878" y="359.3433">&#21542;</text><path d="M223.0009,383.9375 L223.0009,407.6367 L203.0009,411.6367 L223.0009,415.6367 L223.0009,439.3359 A0,0 0 0 0 223.0009,439.3359 L442.5368,439.3359 A0,0 0 0 0 442.5368,439.3359 L442.5368,393.9375 L432.5368,383.9375 L223.0009,383.9375 A0,0 0 0 0 223.0009,383.9375 " fill="#FEFFDD" style="stroke:#181818;stroke-width:0.5;"/><path d="M432.5368,383.9375 L432.5368,393.9375 L442.5368,393.9375 L432.5368,383.9375 " fill="#FEFFDD" style="stroke:#181818;stroke-width:0.5;"/><text fill="#000000" font-family="sans-serif" font-size="13" lengthAdjust="spacing" textLength="104.0001" x="229.0009" y="401.0044">&#35745;&#31639;&#34920;&#36798;&#24335;&#36807;&#31243;&#65306;</text><text fill="#000000" font-family="sans-serif" font-size="13" lengthAdjust="spacing" textLength="198.5359" x="229.0009" y="416.1372">1. &#23558;&#20013;&#32512;&#34920;&#36798;&#24335;&#36716;&#25442;&#20026;&#21518;&#32512;&#34920;&#36798;&#24335;</text><text fill="#000000" font-family="sans-serif" font-size="13" lengthAdjust="spacing" textLength="146.5358" x="229.0009" y="431.27">2. &#20351;&#29992;&#26632;&#35745;&#31639;&#21518;&#32512;&#34920;&#36798;&#24335;</text><rect fill="#F1F1F1" height="33.9688" rx="12.5" ry="12.5" style="stroke:#181818;stroke-width:0.5;" width="80.0005" x="123.0004" y="394.6523"/><text fill="#000000" font-family="sans-serif" font-size="12" lengthAdjust="spacing" textLength="60.0005" x="133.0004" y="415.791">&#35745;&#31639;&#34920;&#36798;&#24335;</text><rect fill="#F1F1F1" height="33.9688" rx="12.5" ry="12.5" style="stroke:#181818;stroke-width:0.5;" width="164.0011" x="81.0001" y="469.8438"/><text fill="#000000" font-family="sans-serif" font-size="12" lengthAdjust="spacing" textLength="144.0011" x="91.0001" y="490.9824">&#23558;&#34920;&#36798;&#24335;&#36716;&#25442;&#20026;&#21518;&#32512;&#34920;&#36798;&#24335;</text><rect fill="#F1F1F1" height="33.9688" rx="12.5" ry="12.5" style="stroke:#181818;stroke-width:0.5;" width="80.0005" x="123.0004" y="534.3203"/><text fill="#000000" font-family="sans-serif" font-size="12" lengthAdjust="spacing" textLength="60.0005" x="133.0004" y="555.459">&#21021;&#22987;&#21270;&#31354;&#26632;</text><polygon fill="#F1F1F1" points="138.0816,643.9995,187.9197,643.9995,199.9197,655.9995,187.9197,667.9995,138.0816,667.9995,126.0816,655.9995,138.0816,643.9995" style="stroke:#181818;stroke-width:0.5;"/><text fill="#000000" font-family="sans-serif" font-size="11" lengthAdjust="spacing" textLength="49.8381" x="138.0816" y="659.8076">&#26159;&#25805;&#20316;&#25968;?</text><text fill="#000000" font-family="sans-serif" font-size="11" lengthAdjust="spacing" textLength="10.9999" x="115.0817" y="653.4053">&#26159;</text><text fill="#000000" font-family="sans-serif" font-size="11" lengthAdjust="spacing" textLength="10.9999" x="199.9197" y="653.4053">&#21542;</text><rect fill="#F1F1F1" height="33.9688" rx="12.5" ry="12.5" style="stroke:#181818;stroke-width:0.5;" width="104.0006" x="46" y="677.9995"/><text fill="#000000" font-family="sans-serif" font-size="12" lengthAdjust="spacing" textLength="84.0006" x="56" y="699.1382">&#23558;&#25805;&#20316;&#25968;&#21387;&#20837;&#26632;</text><rect fill="#F1F1F1" height="33.9688" rx="12.5" ry="12.5" style="stroke:#181818;stroke-width:0.5;" width="116.0007" x="170.0006" y="677.9995"/><text fill="#000000" font-family="sans-serif" font-size="12" lengthAdjust="spacing" textLength="96.0007" x="180.0006" y="699.1382">&#24377;&#20986;&#26632;&#39030;&#20004;&#20010;&#20803;&#32032;</text><rect fill="#F1F1F1" height="33.9688" rx="12.5" ry="12.5" style="stroke:#181818;stroke-width:0.5;" width="68.0004" x="194.0008" y="731.9683"/><text fill="#000000" font-family="sans-serif" font-size="12" lengthAdjust="spacing" textLength="48.0004" x="204.0008" y="753.1069">&#25191;&#34892;&#36816;&#31639;</text><rect fill="#F1F1F1" height="33.9688" rx="12.5" ry="12.5" style="stroke:#181818;stroke-width:0.5;" width="92.0005" x="182.0007" y="785.937"/><text fill="#000000" font-family="sans-serif" font-size="12" lengthAdjust="spacing" textLength="72.0005" x="192.0007" y="807.0757">&#23558;&#32467;&#26524;&#21387;&#22238;&#26632;</text><polygon fill="#F1F1F1" points="163.0007,825.9058,175.0007,837.9058,163.0007,849.9058,151.0007,837.9058,163.0007,825.9058" style="stroke:#181818;stroke-width:0.5;"/><polygon fill="#F1F1F1" points="97.0011,588.2891,229.0002,588.2891,241.0002,600.2891,229.0002,612.2891,97.0011,612.2891,85.0011,600.2891,97.0011,588.2891" style="stroke:#181818;stroke-width:0.5;"/><text fill="#000000" font-family="sans-serif" font-size="11" lengthAdjust="spacing" textLength="43.9997" x="167.0007" y="622.4995">&#36824;&#26377;&#20803;&#32032;</text><text fill="#000000" font-family="sans-serif" font-size="11" lengthAdjust="spacing" textLength="131.9991" x="97.0011" y="604.0972">&#36941;&#21382;&#21518;&#32512;&#34920;&#36798;&#24335;&#30340;&#27599;&#20010;&#20803;&#32032;</text><text fill="#000000" font-family="sans-serif" font-size="11" lengthAdjust="spacing" textLength="65.9995" x="19.0016" y="597.6948">&#27809;&#26377;&#26356;&#22810;&#20803;&#32032;</text><rect fill="#F1F1F1" height="33.9688" rx="12.5" ry="12.5" style="stroke:#181818;stroke-width:0.5;" width="140.0009" x="93.0002" y="891.9058"/><text fill="#000000" font-family="sans-serif" font-size="12" lengthAdjust="spacing" textLength="120.0009" x="103.0002" y="913.0444">&#26632;&#39030;&#20803;&#32032;&#21363;&#20026;&#26368;&#32456;&#32467;&#26524;</text><rect fill="#F1F1F1" height="33.9688" rx="12.5" ry="12.5" style="stroke:#181818;stroke-width:0.5;" width="68.0004" x="129.0005" y="945.8745"/><text fill="#000000" font-family="sans-serif" font-size="12" lengthAdjust="spacing" textLength="48.0004" x="139.0005" y="967.0132">&#26174;&#31034;&#32467;&#26524;</text><rect fill="#F1F1F1" height="33.9688" rx="12.5" ry="12.5" style="stroke:#181818;stroke-width:0.5;" width="68.0004" x="462.5368" y="383.9375"/><text fill="#000000" font-family="sans-serif" font-size="12" lengthAdjust="spacing" textLength="48.0004" x="472.5368" y="405.0762">&#32487;&#32493;&#36755;&#20837;</text><polygon fill="#F1F1F1" points="329.7688,235.9375,341.7688,247.9375,329.7688,259.9375,317.7688,247.9375,329.7688,235.9375" style="stroke:#181818;stroke-width:0.5;"/><polygon fill="#F1F1F1" points="302.269,999.8433,357.2686,999.8433,369.2686,1011.8433,357.2686,1023.8433,302.269,1023.8433,290.269,1011.8433,302.269,999.8433" style="stroke:#181818;stroke-width:0.5;"/><text fill="#000000" font-family="sans-serif" font-size="11" lengthAdjust="spacing" textLength="54.9996" x="302.269" y="1015.6514">&#36755;&#20837;&#26410;&#23436;&#25104;</text><polygon fill="#F1F1F1" points="329.7688,1043.8433,341.7688,1055.8433,329.7688,1067.8433,317.7688,1055.8433,329.7688,1043.8433" style="stroke:#181818;stroke-width:0.5;"/><rect fill="#F1F1F1" height="33.9688" rx="12.5" ry="12.5" style="stroke:#181818;stroke-width:0.5;" width="128.0008" x="614.5373" y="235.9375"/><text fill="#000000" font-family="sans-serif" font-size="12" lengthAdjust="spacing" textLength="108.0008" x="624.5373" y="257.0762">&#25171;&#24320;&#36151;&#27454;&#35745;&#31639;&#22120;&#30028;&#38754;</text><rect fill="#F1F1F1" height="33.9688" rx="12.5" ry="12.5" style="stroke:#181818;stroke-width:0.5;" width="164.0011" x="596.5372" y="289.9063"/><text fill="#000000" font-family="sans-serif" font-size="12" lengthAdjust="spacing" textLength="144.0011" x="606.5372" y="311.0449">&#36755;&#20837;&#36151;&#27454;&#37329;&#39069;&#12289;&#21033;&#29575;&#12289;&#26399;&#38480;</text><rect fill="#F1F1F1" height="33.9688" rx="12.5" ry="12.5" style="stroke:#181818;stroke-width:0.5;" width="92.0005" x="632.5375" y="346.9063"/><text fill="#000000" font-family="sans-serif" font-size="12" lengthAdjust="spacing" textLength="72.0005" x="642.5375" y="368.0449">&#36873;&#25321;&#36824;&#27454;&#26041;&#24335;</text><rect fill="#F1F1F1" height="33.9688" rx="12.5" ry="12.5" style="stroke:#181818;stroke-width:0.5;" width="92.0005" x="632.5375" y="415.875"/><text fill="#000000" font-family="sans-serif" font-size="12" lengthAdjust="spacing" textLength="72.0005" x="642.5375" y="437.0137">&#35745;&#31639;&#36151;&#27454;&#20449;&#24687;</text><rect fill="#F1F1F1" height="33.9688" rx="12.5" ry="12.5" style="stroke:#181818;stroke-width:0.5;" width="188.0013" x="584.5371" y="480.3516"/><text fill="#000000" font-family="sans-serif" font-size="12" lengthAdjust="spacing" textLength="168.0013" x="594.5371" y="501.4902">&#26174;&#31034;&#26376;&#36824;&#27454;&#12289;&#24635;&#21033;&#24687;&#12289;&#24635;&#36824;&#27454;&#39069;</text><polygon fill="#F1F1F1" points="504.1533,1073.8433,516.1533,1085.8433,504.1533,1097.8433,492.1533,1085.8433,504.1533,1073.8433" style="stroke:#181818;stroke-width:0.5;"/><polygon fill="#F1F1F1" points="504.1533,157.9375,516.1533,169.9375,504.1533,181.9375,492.1533,169.9375,504.1533,157.9375" style="stroke:#181818;stroke-width:0.5;"/><polygon fill="#F1F1F1" points="479.2342,1117.8433,529.0723,1117.8433,541.0723,1129.8433,529.0723,1141.8433,479.2342,1141.8433,467.2342,1129.8433,479.2342,1117.8433" style="stroke:#181818;stroke-width:0.5;"/><text fill="#000000" font-family="sans-serif" font-size="11" lengthAdjust="spacing" textLength="49.8381" x="479.2342" y="1133.6514">&#32487;&#32493;&#20351;&#29992;?</text><text fill="#000000" font-family="sans-serif" font-size="11" lengthAdjust="spacing" textLength="10.9999" x="541.0723" y="1127.249">&#26159;</text><rect fill="#F1F1F1" height="33.9688" rx="12.5" ry="12.5" style="stroke:#181818;stroke-width:0.5;" width="92.0005" x="458.153" y="1183.2422"/><text fill="#000000" font-family="sans-serif" font-size="12" lengthAdjust="spacing" textLength="72.0005" x="468.153" y="1204.3809">&#29992;&#25143;&#36864;&#20986;&#24212;&#29992;</text><ellipse cx="504.1533" cy="1248.2109" fill="none" rx="11" ry="11" style="stroke:#222222;stroke-width:1.0;"/><ellipse cx="504.1533" cy="1248.2109" fill="#222222" rx="6" ry="6" style="stroke:#222222;stroke-width:1.0;"/><line style="stroke:#181818;stroke-width:1.0;" x1="504.1533" x2="504.1533" y1="30" y2="50"/><polygon fill="#181818" points="500.1533,40,504.1533,50,508.1533,40,504.1533,44" style="stroke:#181818;stroke-width:1.0;"/><line style="stroke:#181818;stroke-width:1.0;" x1="504.1533" x2="504.1533" y1="83.9688" y2="103.9688"/><polygon fill="#181818" points="500.1533,93.9688,504.1533,103.9688,508.1533,93.9688,504.1533,97.9688" style="stroke:#181818;stroke-width:1.0;"/><line style="stroke:#181818;stroke-width:1.0;" x1="163.0007" x2="163.0007" y1="428.6211" y2="469.8438"/><polygon fill="#181818" points="159.0007,459.8438,163.0007,469.8438,167.0007,459.8438,163.0007,463.8438" style="stroke:#181818;stroke-width:1.0;"/><line style="stroke:#181818;stroke-width:1.0;" x1="163.0007" x2="163.0007" y1="503.8125" y2="534.3203"/><polygon fill="#181818" points="159.0007,524.3203,163.0007,534.3203,167.0007,524.3203,163.0007,528.3203" style="stroke:#181818;stroke-width:1.0;"/><line style="stroke:#181818;stroke-width:1.0;" x1="228.001" x2="228.001" y1="711.9683" y2="731.9683"/><polygon fill="#181818" points="224.001,721.9683,228.001,731.9683,232.001,721.9683,228.001,725.9683" style="stroke:#181818;stroke-width:1.0;"/><line style="stroke:#181818;stroke-width:1.0;" x1="228.001" x2="228.001" y1="765.937" y2="785.937"/><polygon fill="#181818" points="224.001,775.937,228.001,785.937,232.001,775.937,228.001,779.937" style="stroke:#181818;stroke-width:1.0;"/><line style="stroke:#181818;stroke-width:1.0;" x1="126.0816" x2="98.0003" y1="655.9995" y2="655.9995"/><line style="stroke:#181818;stroke-width:1.0;" x1="98.0003" x2="98.0003" y1="655.9995" y2="677.9995"/><polygon fill="#181818" points="94.0003,667.9995,98.0003,677.9995,102.0003,667.9995,98.0003,671.9995" style="stroke:#181818;stroke-width:1.0;"/><line style="stroke:#181818;stroke-width:1.0;" x1="199.9197" x2="228.001" y1="655.9995" y2="655.9995"/><line style="stroke:#181818;stroke-width:1.0;" x1="228.001" x2="228.001" y1="655.9995" y2="677.9995"/><polygon fill="#181818" points="224.001,667.9995,228.001,677.9995,232.001,667.9995,228.001,671.9995" style="stroke:#181818;stroke-width:1.0;"/><line style="stroke:#181818;stroke-width:1.0;" x1="98.0003" x2="98.0003" y1="711.9683" y2="837.9058"/><line style="stroke:#181818;stroke-width:1.0;" x1="98.0003" x2="151.0007" y1="837.9058" y2="837.9058"/><polygon fill="#181818" points="141.0007,833.9058,151.0007,837.9058,141.0007,841.9058,145.0007,837.9058" style="stroke:#181818;stroke-width:1.0;"/><line style="stroke:#181818;stroke-width:1.0;" x1="228.001" x2="228.001" y1="819.9058" y2="837.9058"/><line style="stroke:#181818;stroke-width:1.0;" x1="228.001" x2="175.0007" y1="837.9058" y2="837.9058"/><polygon fill="#181818" points="185.0007,833.9058,175.0007,837.9058,185.0007,841.9058,181.0007,837.9058" style="stroke:#181818;stroke-width:1.0;"/><line style="stroke:#181818;stroke-width:1.0;" x1="163.0007" x2="163.0007" y1="612.2891" y2="643.9995"/><polygon fill="#181818" points="159.0007,633.9995,163.0007,643.9995,167.0007,633.9995,163.0007,637.9995" style="stroke:#181818;stroke-width:1.0;"/><line style="stroke:#181818;stroke-width:1.0;" x1="163.0007" x2="163.0007" y1="849.9058" y2="859.9058"/><line style="stroke:#181818;stroke-width:1.0;" x1="163.0007" x2="308.0014" y1="859.9058" y2="859.9058"/><polygon fill="#181818" points="304.0014,738.5503,308.0014,728.5503,312.0014,738.5503,308.0014,734.5503" style="stroke:#181818;stroke-width:1.0;"/><line style="stroke:#181818;stroke-width:1.0;" x1="308.0014" x2="308.0014" y1="600.2891" y2="859.9058"/><line style="stroke:#181818;stroke-width:1.0;" x1="308.0014" x2="241.0002" y1="600.2891" y2="600.2891"/><polygon fill="#181818" points="251.0002,596.2891,241.0002,600.2891,251.0002,604.2891,247.0002,600.2891" style="stroke:#181818;stroke-width:1.0;"/><line style="stroke:#181818;stroke-width:1.0;" x1="85.0011" x2="24" y1="600.2891" y2="600.2891"/><polygon fill="#181818" points="20,724.5503,24,734.5503,28,724.5503,24,728.5503" style="stroke:#181818;stroke-width:1.0;"/><line style="stroke:#181818;stroke-width:1.0;" x1="24" x2="24" y1="600.2891" y2="871.9058"/><line style="stroke:#181818;stroke-width:1.0;" x1="24" x2="163.0007" y1="871.9058" y2="871.9058"/><line style="stroke:#181818;stroke-width:1.0;" x1="163.0007" x2="163.0007" y1="871.9058" y2="891.9058"/><polygon fill="#181818" points="159.0007,881.9058,163.0007,891.9058,167.0007,881.9058,163.0007,885.9058" style="stroke:#181818;stroke-width:1.0;"/><line style="stroke:#181818;stroke-width:1.0;" x1="163.0007" x2="163.0007" y1="568.2891" y2="588.2891"/><polygon fill="#181818" points="159.0007,578.2891,163.0007,588.2891,167.0007,578.2891,163.0007,582.2891" style="stroke:#181818;stroke-width:1.0;"/><line style="stroke:#181818;stroke-width:1.0;" x1="163.0007" x2="163.0007" y1="925.8745" y2="945.8745"/><polygon fill="#181818" points="159.0007,935.8745,163.0007,945.8745,167.0007,935.8745,163.0007,939.8745" style="stroke:#181818;stroke-width:1.0;"/><line style="stroke:#181818;stroke-width:1.0;" x1="163.0007" x2="163.0007" y1="979.8433" y2="1055.8433"/><line style="stroke:#181818;stroke-width:1.0;" x1="163.0007" x2="317.7688" y1="1055.8433" y2="1055.8433"/><polygon fill="#181818" points="307.7688,1051.8433,317.7688,1055.8433,307.7688,1059.8433,311.7688,1055.8433" style="stroke:#181818;stroke-width:1.0;"/><line style="stroke:#181818;stroke-width:1.0;" x1="292.8498" x2="163.0007" y1="361.9375" y2="361.9375"/><line style="stroke:#181818;stroke-width:1.0;" x1="163.0007" x2="163.0007" y1="361.9375" y2="394.6523"/><polygon fill="#181818" points="159.0007,384.6523,163.0007,394.6523,167.0007,384.6523,163.0007,388.6523" style="stroke:#181818;stroke-width:1.0;"/><line style="stroke:#181818;stroke-width:1.0;" x1="366.6878" x2="496.5369" y1="361.9375" y2="361.9375"/><line style="stroke:#181818;stroke-width:1.0;" x1="496.5369" x2="496.5369" y1="361.9375" y2="383.9375"/><polygon fill="#181818" points="492.5369,373.9375,496.5369,383.9375,500.5369,373.9375,496.5369,377.9375" style="stroke:#181818;stroke-width:1.0;"/><line style="stroke:#181818;stroke-width:1.0;" x1="496.5369" x2="496.5369" y1="417.9063" y2="984.8433"/><line style="stroke:#181818;stroke-width:1.0;" x1="496.5369" x2="329.7688" y1="984.8433" y2="984.8433"/><line style="stroke:#181818;stroke-width:1.0;" x1="329.7688" x2="329.7688" y1="984.8433" y2="999.8433"/><polygon fill="#181818" points="325.7688,989.8433,329.7688,999.8433,333.7688,989.8433,329.7688,993.8433" style="stroke:#181818;stroke-width:1.0;"/><line style="stroke:#181818;stroke-width:1.0;" x1="329.7688" x2="329.7688" y1="326.9063" y2="349.9375"/><polygon fill="#181818" points="325.7688,339.9375,329.7688,349.9375,333.7688,339.9375,329.7688,343.9375" style="stroke:#181818;stroke-width:1.0;"/><line style="stroke:#181818;stroke-width:1.0;" x1="329.7688" x2="329.7688" y1="259.9375" y2="292.9375"/><polygon fill="#181818" points="325.7688,282.9375,329.7688,292.9375,333.7688,282.9375,329.7688,286.9375" style="stroke:#181818;stroke-width:1.0;"/><line style="stroke:#181818;stroke-width:1.0;" x1="369.2686" x2="552.5371" y1="1011.8433" y2="1011.8433"/><polygon fill="#181818" points="548.5371,677.3667,552.5371,667.3667,556.5371,677.3667,552.5371,673.3667" style="stroke:#181818;stroke-width:1.0;"/><line style="stroke:#181818;stroke-width:1.0;" x1="552.5371" x2="552.5371" y1="247.9375" y2="1011.8433"/><line style="stroke:#181818;stroke-width:1.0;" x1="552.5371" x2="341.7688" y1="247.9375" y2="247.9375"/><polygon fill="#181818" points="351.7688,243.9375,341.7688,247.9375,351.7688,251.9375,347.7688,247.9375" style="stroke:#181818;stroke-width:1.0;"/><line style="stroke:#181818;stroke-width:1.0;" x1="329.7688" x2="329.7688" y1="1023.8433" y2="1043.8433"/><polygon fill="#181818" points="325.7688,1033.8433,329.7688,1043.8433,333.7688,1033.8433,329.7688,1037.8433" style="stroke:#181818;stroke-width:1.0;"/><line style="stroke:#181818;stroke-width:1.0;" x1="678.5378" x2="678.5378" y1="269.9063" y2="289.9063"/><polygon fill="#181818" points="674.5378,279.9063,678.5378,289.9063,682.5378,279.9063,678.5378,283.9063" style="stroke:#181818;stroke-width:1.0;"/><line style="stroke:#181818;stroke-width:1.0;" x1="678.5378" x2="678.5378" y1="323.875" y2="346.9063"/><polygon fill="#181818" points="674.5378,336.9063,678.5378,346.9063,682.5378,336.9063,678.5378,340.9063" style="stroke:#181818;stroke-width:1.0;"/><line style="stroke:#181818;stroke-width:1.0;" x1="678.5378" x2="678.5378" y1="380.875" y2="415.875"/><polygon fill="#181818" points="674.5378,405.875,678.5378,415.875,682.5378,405.875,678.5378,409.875" style="stroke:#181818;stroke-width:1.0;"/><line style="stroke:#181818;stroke-width:1.0;" x1="678.5378" x2="678.5378" y1="449.8438" y2="480.3516"/><polygon fill="#181818" points="674.5378,470.3516,678.5378,480.3516,682.5378,470.3516,678.5378,474.3516" style="stroke:#181818;stroke-width:1.0;"/><line style="stroke:#181818;stroke-width:1.0;" x1="470.1534" x2="329.7688" y1="213.9375" y2="213.9375"/><line style="stroke:#181818;stroke-width:1.0;" x1="329.7688" x2="329.7688" y1="213.9375" y2="235.9375"/><polygon fill="#181818" points="325.7688,225.9375,329.7688,235.9375,333.7688,225.9375,329.7688,229.9375" style="stroke:#181818;stroke-width:1.0;"/><line style="stroke:#181818;stroke-width:1.0;" x1="538.1531" x2="678.5378" y1="213.9375" y2="213.9375"/><line style="stroke:#181818;stroke-width:1.0;" x1="678.5378" x2="678.5378" y1="213.9375" y2="235.9375"/><polygon fill="#181818" points="674.5378,225.9375,678.5378,235.9375,682.5378,225.9375,678.5378,229.9375" style="stroke:#181818;stroke-width:1.0;"/><line style="stroke:#181818;stroke-width:1.0;" x1="329.7688" x2="329.7688" y1="1067.8433" y2="1085.8433"/><line style="stroke:#181818;stroke-width:1.0;" x1="329.7688" x2="492.1533" y1="1085.8433" y2="1085.8433"/><polygon fill="#181818" points="482.1533,1081.8433,492.1533,1085.8433,482.1533,1089.8433,486.1533,1085.8433" style="stroke:#181818;stroke-width:1.0;"/><line style="stroke:#181818;stroke-width:1.0;" x1="678.5378" x2="678.5378" y1="514.3203" y2="1085.8433"/><line style="stroke:#181818;stroke-width:1.0;" x1="678.5378" x2="516.1533" y1="1085.8433" y2="1085.8433"/><polygon fill="#181818" points="526.1533,1081.8433,516.1533,1085.8433,526.1533,1089.8433,522.1533,1085.8433" style="stroke:#181818;stroke-width:1.0;"/><line style="stroke:#181818;stroke-width:1.0;" x1="504.1533" x2="504.1533" y1="181.9375" y2="201.9375"/><polygon fill="#181818" points="500.1533,191.9375,504.1533,201.9375,508.1533,191.9375,504.1533,195.9375" style="stroke:#181818;stroke-width:1.0;"/><line style="stroke:#181818;stroke-width:1.0;" x1="541.0723" x2="786.5384" y1="1129.8433" y2="1129.8433"/><polygon fill="#181818" points="782.5384,704.8667,786.5384,694.8667,790.5384,704.8667,786.5384,700.8667" style="stroke:#181818;stroke-width:1.0;"/><line style="stroke:#181818;stroke-width:1.0;" x1="786.5384" x2="786.5384" y1="169.9375" y2="1129.8433"/><line style="stroke:#181818;stroke-width:1.0;" x1="786.5384" x2="516.1533" y1="169.9375" y2="169.9375"/><polygon fill="#181818" points="526.1533,165.9375,516.1533,169.9375,526.1533,173.9375,522.1533,169.9375" style="stroke:#181818;stroke-width:1.0;"/><line style="stroke:#181818;stroke-width:1.0;" x1="504.1533" x2="504.1533" y1="1097.8433" y2="1117.8433"/><polygon fill="#181818" points="500.1533,1107.8433,504.1533,1117.8433,508.1533,1107.8433,504.1533,1111.8433" style="stroke:#181818;stroke-width:1.0;"/><line style="stroke:#181818;stroke-width:1.0;" x1="504.1533" x2="504.1533" y1="137.9375" y2="157.9375"/><polygon fill="#181818" points="500.1533,147.9375,504.1533,157.9375,508.1533,147.9375,504.1533,151.9375" style="stroke:#181818;stroke-width:1.0;"/><line style="stroke:#181818;stroke-width:1.0;" x1="504.1533" x2="504.1533" y1="1141.8433" y2="1183.2422"/><polygon fill="#181818" points="500.1533,1173.2422,504.1533,1183.2422,508.1533,1173.2422,504.1533,1177.2422" style="stroke:#181818;stroke-width:1.0;"/><text fill="#000000" font-family="sans-serif" font-size="11" lengthAdjust="spacing" textLength="10.9999" x="508.1533" y="1163.1479">&#21542;</text><line style="stroke:#181818;stroke-width:1.0;" x1="504.1533" x2="504.1533" y1="1217.2109" y2="1237.2109"/><polygon fill="#181818" points="500.1533,1227.2109,504.1533,1237.2109,508.1533,1227.2109,504.1533,1231.2109" style="stroke:#181818;stroke-width:1.0;"/><!--SRC=[XLJDRjf04Bxp57iCXqPgZrXgdeKgJa6DI0IMUZLgWqtvYIiIIeX9CIB5H0IY5ZM47_CmzSxQfxv2runjZDkeFgrdlvblvfkPBKZfl9H8iGiJr4UgJUWdayul-A-GI46vGPSoT1Mgb9onmSPVw9N9BgjkfoSaykAfc9OIX6IFo9uhbw4oX4RDNkb98cN47DcB-YKvZf3GnVjyIiTgqBDRnp0TowBBSr2RqLY23_Ou44d7LL2rWv2aDKdw61uIoS9WGdYJEv54ai- -pKYXYP0OsbahpApyNhOZa9VxX3wKxDazMyfRu6e4jPuzcrEj7hL7_5xj4tkrzYhighvops35tE4cksqHdF2_L484hdRee4AhJJQSSxRjpVjCzbZahIdMQBqKysVjZp0vjsTtzEm3ctQJ95lW0gzRe9TzIwGOJtokCtO4BX_-BNwGUmYZzGhlrqvAlDpZ0i-9Qj_YZiidgdZvkyPFUzOFCnDsOL0UE4RLMMjSKU4lQhPem8tkyLxVn7bpXzcZgEY-El3Tu3N3zPJss_7AKvWEccdj1sy3w39RgCWJwG6qBDQVnyrlycBwNUBPkbDiCM2BUnphm6kR9ovBq4L4WNw7y-z5mP3Ez156LhYT6DxVtDXTiBcuAhXt6uIhV7PxdLzoaQf3LbVu0VIlxfNcGt4XlUaOMT1y2iSlMBTD37jjG77YNw0UeAlev0MK5pmuH-0PxPpKSy2QT-j5RN273d0yDzFsuZNNK0ZUArUM-TG4xrL1EZdz0m00]--></g></svg>